<svg width="20" height="22" viewBox="0 0 20 22" fill="none" xmlns="http://www.w3.org/2000/svg">
<path d="M0.0361328 19.5307C0.0361328 20.6029 0.959278 21.4728 2.09711 21.4728H17.2109C18.3488 21.4728 19.2719 20.6029 19.2719 19.5307V8.52562H0.0361328V19.5307ZM13.776 11.6006C13.776 11.3335 14.0078 11.115 14.2912 11.115H16.0087C16.2921 11.115 16.5239 11.3335 16.5239 11.6006V13.219C16.5239 13.486 16.2921 13.7045 16.0087 13.7045H14.2912C14.0078 13.7045 13.776 13.486 13.776 13.219V11.6006ZM13.776 16.7794C13.776 16.5124 14.0078 16.2939 14.2912 16.2939H16.0087C16.2921 16.2939 16.5239 16.5124 16.5239 16.7794V18.3978C16.5239 18.6649 16.2921 18.8833 16.0087 18.8833H14.2912C14.0078 18.8833 13.776 18.6649 13.776 18.3978V16.7794ZM8.28004 11.6006C8.28004 11.3335 8.5119 11.115 8.79528 11.115H10.5128C10.7961 11.115 11.028 11.3335 11.028 11.6006V13.219C11.028 13.486 10.7961 13.7045 10.5128 13.7045H8.79528C8.5119 13.7045 8.28004 13.486 8.28004 13.219V11.6006ZM8.28004 16.7794C8.28004 16.5124 8.5119 16.2939 8.79528 16.2939H10.5128C10.7961 16.2939 11.028 16.5124 11.028 16.7794V18.3978C11.028 18.6649 10.7961 18.8833 10.5128 18.8833H8.79528C8.5119 18.8833 8.28004 18.6649 8.28004 18.3978V16.7794ZM2.7841 11.6006C2.7841 11.3335 3.01596 11.115 3.29934 11.115H5.01682C5.30021 11.115 5.53207 11.3335 5.53207 11.6006V13.219C5.53207 13.486 5.30021 13.7045 5.01682 13.7045H3.29934C3.01596 13.7045 2.7841 13.486 2.7841 13.219V11.6006ZM2.7841 16.7794C2.7841 16.5124 3.01596 16.2939 3.29934 16.2939H5.01682C5.30021 16.2939 5.53207 16.5124 5.53207 16.7794V18.3978C5.53207 18.6649 5.30021 18.8833 5.01682 18.8833H3.29934C3.01596 18.8833 2.7841 18.6649 2.7841 18.3978V16.7794ZM17.2109 3.34676H15.15V1.40468C15.15 1.04864 14.8408 0.757324 14.463 0.757324H13.089C12.7111 0.757324 12.402 1.04864 12.402 1.40468V3.34676H6.90605V1.40468C6.90605 1.04864 6.59691 0.757324 6.21906 0.757324H4.84508C4.46723 0.757324 4.15808 1.04864 4.15808 1.40468V3.34676H2.09711C0.959278 3.34676 0.0361328 4.21664 0.0361328 5.28883V7.2309H19.2719V5.28883C19.2719 4.21664 18.3488 3.34676 17.2109 3.34676Z" fill="black"/>
</svg>
