<svg width="28" height="23" viewBox="0 0 28 23" fill="none" xmlns="http://www.w3.org/2000/svg">
<path d="M9.10005 15.8125C8.99549 15.8125 8.89092 15.8282 8.79117 15.8615C8.22418 16.0506 7.62786 16.1719 7.00005 16.1719C6.37224 16.1719 5.77593 16.0506 5.2085 15.8615C5.10875 15.8282 5.00462 15.8125 4.90006 15.8125C2.18494 15.8125 -0.0143668 18.0802 7.0677e-05 20.8716C0.00619566 22.0513 0.950756 23 2.10007 23H11.9C13.0494 23 13.9939 22.0513 14 20.8716C14.0145 18.0802 11.8152 15.8125 9.10005 15.8125ZM7.00005 14.375C9.31967 14.375 11.2 12.4443 11.2 10.0625C11.2 7.68074 9.31967 5.75 7.00005 5.75C4.68043 5.75 2.80006 7.68074 2.80006 10.0625C2.80006 12.4443 4.68043 14.375 7.00005 14.375ZM25.9 0H9.10005C7.94199 0 7.00005 0.999512 7.00005 2.22768V4.3125C8.02468 4.3125 8.97317 4.61707 9.80005 5.11211V2.875H25.2V15.8125H22.4V12.9375H16.8V15.8125H13.4645C14.3002 16.5622 14.9135 17.5523 15.201 18.6875H25.9C27.0581 18.6875 28 17.688 28 16.4598V2.22768C28 0.999512 27.0581 0 25.9 0Z" fill="#A7A7A7"/>
</svg>
