<svg width="24" height="24" viewBox="0 0 24 24" fill="none" xmlns="http://www.w3.org/2000/svg">
<path d="M23.9112 11.8891C23.9112 10.3278 23.6036 8.78186 23.0062 7.33927C22.4087 5.89696 21.533 4.58613 20.429 3.48228C19.325 2.37811 18.0143 1.50239 16.5718 0.905035C15.1294 0.307381 13.5834 0 12.0221 0V2.37782C13.2712 2.37782 14.508 2.62396 15.6619 3.10174C16.8159 3.5798 17.8644 4.28049 18.7477 5.16375C19.6308 6.04674 20.3314 7.09545 20.8093 8.24924C21.2874 9.40332 21.5334 10.6402 21.5334 11.8891H23.9112Z" fill="#A7A7A7"/>
<path d="M0.132935 9.5114V3.56684C0.132935 2.91026 0.665234 2.37793 1.32185 2.37793H7.26641C7.92302 2.37793 8.45532 2.91026 8.45532 3.56684V8.32249C8.45532 8.97907 7.92302 9.5114 7.26641 9.5114H4.88858C4.88858 14.7643 9.14694 19.0227 14.3999 19.0227V16.6449C14.3999 15.9884 14.9322 15.456 15.5888 15.456H20.3444C21.0011 15.456 21.5333 15.9884 21.5333 16.6449V22.5894C21.5333 23.2459 21.0011 23.7783 20.3444 23.7783H14.3999C6.52047 23.7783 0.132935 17.3908 0.132935 9.5114Z" fill="#A7A7A7"/>
<path d="M18.6126 9.15942C18.971 10.025 19.1556 10.9527 19.1556 11.8893H17.0155C17.0155 11.2336 16.8864 10.5843 16.6354 9.97851C16.3844 9.37248 16.0167 8.82214 15.5529 8.35858C15.0892 7.89475 14.5389 7.52699 13.933 7.27591C13.3272 7.02512 12.6778 6.89596 12.0221 6.89596V4.75586C12.9588 4.75586 13.8864 4.94046 14.752 5.29894C15.6174 5.65741 16.4038 6.18279 17.0662 6.84516C17.7286 7.50754 18.2541 8.29386 18.6126 9.15942Z" fill="#A7A7A7"/>
</svg>
