<svg xmlns="http://www.w3.org/2000/svg" viewBox="0 0 512 358.6"><g id="Livello_2" data-name="Livello 2"><g id="Livello_1-2" data-name="Livello 1"><path d="M235.38,215.59C169.83,148.89,103.54,83,37.63,16.64,34.11,13.07,31.49,8.71,24.82,0H486.7C479.46,9.24,476,14.8,471.43,19.37c-64,64.49-128.26,128.73-192.13,193.39C264.92,227.4,252.38,232.91,235.38,215.59Z"/><path d="M483.82,358.6H27.13q79.2-77.94,151-148.68,15.59,15.75,31,31.44c14.17,14.43,29.75,21.72,46.39,21.72,23,0,39.52-14,49.91-24.5q14.49-14.73,29.13-29.45Q405.39,280,483.82,358.6Z"/><path d="M512,29.49V330.78c-51.17-50.9-100.87-100.29-150.09-149.2l60.82-61.14q37.39-37.62,74.79-75.2a97,97,0,0,0,8.18-9.55C507.8,33.64,509.9,31.59,512,29.49Z"/><path d="M151.46,183C101.6,231.49,51.59,280.14,0,330.31V28.13c.37.52.73,1.05,1.1,1.52A101.38,101.38,0,0,0,11.6,42.51Q44.27,75.42,77,108.21C101.5,132.78,126.48,157.81,151.46,183Z"/></g></g></svg>