<svg width="20" height="20" viewBox="0 0 20 20" fill="none" xmlns="http://www.w3.org/2000/svg">
<path d="M9.65402 0.22876C4.34245 0.22876 0.0361328 4.53508 0.0361328 9.84665C0.0361328 15.1582 4.34245 19.4645 9.65402 19.4645C14.9656 19.4645 19.2719 15.1582 19.2719 9.84665C19.2719 4.53508 14.9656 0.22876 9.65402 0.22876ZM14.093 11.3263H9.65402C9.4578 11.3263 9.26962 11.2484 9.13088 11.1096C8.99213 10.9709 8.91418 10.7827 8.91418 10.5865V3.92795C8.91418 3.73173 8.99213 3.54355 9.13088 3.4048C9.26962 3.26606 9.4578 3.18811 9.65402 3.18811C9.85024 3.18811 10.0384 3.26606 10.1772 3.4048C10.3159 3.54355 10.3939 3.73173 10.3939 3.92795V9.84665H14.093C14.2893 9.84665 14.4774 9.92459 14.6162 10.0633C14.7549 10.2021 14.8329 10.3903 14.8329 10.5865C14.8329 10.7827 14.7549 10.9709 14.6162 11.1096C14.4774 11.2484 14.2893 11.3263 14.093 11.3263Z" fill="black"/>
</svg>
