<svg width="29" height="29" viewBox="0 0 29 29" fill="none" xmlns="http://www.w3.org/2000/svg">
<path d="M12.8299 9.95106C12.8299 9.88147 12.7951 9.84668 12.7255 9.84668C12.5167 9.84668 12.3079 9.84668 12.0992 9.84668C11.9948 9.84668 11.96 9.88147 11.9948 9.98586C11.9948 10.1946 11.9948 10.4034 11.9948 10.6122C11.9948 10.7165 12.0296 10.7513 12.134 10.7513C12.3427 10.7513 12.5515 10.7513 12.7255 10.7513C12.8299 10.7513 12.8647 10.7165 12.8647 10.6122C12.8647 10.5078 12.8647 10.4034 12.8647 10.299C12.8299 10.1946 12.8299 10.0902 12.8299 9.95106Z" fill="#4EA699"/>
<path d="M13.8737 10.7512C13.9781 10.7512 14.0825 10.7512 14.1868 10.7512C14.2912 10.7512 14.3956 10.7512 14.5 10.7512C14.5696 10.7512 14.6392 10.7164 14.6044 10.6468C14.6044 10.4381 14.6044 10.1945 14.6044 9.98573C14.6044 9.91614 14.5696 9.88135 14.5 9.88135C14.2912 9.88135 14.0825 9.88135 13.8389 9.88135C13.7693 9.88135 13.7345 9.91614 13.7345 9.98573C13.7345 10.1945 13.7345 10.4381 13.7345 10.6468C13.7693 10.7164 13.8041 10.7512 13.8737 10.7512Z" fill="#4EA699"/>
<path d="M12.7255 14.0918C12.5167 14.0918 12.3079 14.0918 12.0992 14.0918C12.0296 14.0918 11.9948 14.1266 11.9948 14.1962C11.9948 14.4049 11.9948 14.6137 11.9948 14.8225C11.9948 14.8921 12.0296 14.9269 12.0992 14.9269C12.2036 14.9269 12.3079 14.9269 12.4123 14.9269C12.5167 14.9269 12.6211 14.9269 12.7255 14.9269C12.8299 14.9269 12.8647 14.8921 12.8299 14.7877C12.8299 14.5789 12.8299 14.3702 12.8299 14.1614C12.8299 14.1266 12.7951 14.0918 12.7255 14.0918Z" fill="#4EA699"/>
<path d="M13.8737 12.839C14.0825 12.839 14.2912 12.839 14.5 12.839C14.5696 12.839 14.6044 12.8042 14.6044 12.7346C14.6044 12.5258 14.6044 12.3171 14.6044 12.1083C14.6044 12.0039 14.5696 12.0039 14.5 12.0039C14.3956 12.0039 14.2912 12.0039 14.2216 12.0039C14.1173 12.0039 14.0129 12.0039 13.8737 12.0039C13.8041 12.0039 13.7693 12.0387 13.7693 12.1083C13.7693 12.3171 13.7693 12.5258 13.7693 12.7346C13.7693 12.8042 13.8041 12.839 13.8737 12.839Z" fill="#4EA699"/>
<path d="M10.9162 14.0918C10.7074 14.0918 10.4986 14.0918 10.2551 14.0918C10.1855 14.0918 10.1507 14.1266 10.1507 14.1962C10.1507 14.3006 10.1507 14.4049 10.1507 14.5093C10.1507 14.9269 10.1507 14.9269 10.5682 14.9269C10.6726 14.9269 10.777 14.9269 10.9162 14.9269C10.9857 14.9269 11.0205 14.8921 11.0205 14.8225C11.0205 14.6137 11.0205 14.3702 11.0205 14.1614C11.0205 14.1266 10.9857 14.0918 10.9162 14.0918Z" fill="#4EA699"/>
<path d="M11.0205 9.98571C11.0205 9.91612 10.9857 9.84653 10.9162 9.88133C10.7074 9.88133 10.4986 9.88133 10.2899 9.88133C10.2203 9.88133 10.1855 9.91612 10.1855 9.98571C10.1855 10.1945 10.1855 10.4032 10.1855 10.6468C10.1855 10.7512 10.2203 10.786 10.3246 10.7512C10.5334 10.7512 10.7422 10.7512 10.951 10.7512C11.0205 10.7512 11.0553 10.7164 11.0553 10.6468C11.0553 10.5424 11.0553 10.438 11.0553 10.3337C11.0205 10.1945 11.0205 10.0901 11.0205 9.98571Z" fill="#4EA699"/>
<path d="M12.0992 12.839C12.3079 12.839 12.5167 12.839 12.7255 12.839C12.7951 12.839 12.8299 12.8042 12.8299 12.7346C12.8299 12.6302 12.8299 12.5258 12.8299 12.4214C12.8299 12.3171 12.8299 12.2127 12.8299 12.1083C12.8299 12.0387 12.7951 12.0039 12.7255 12.0039C12.5167 12.0039 12.3079 12.0039 12.0992 12.0039C11.9948 12.0039 11.96 12.0387 11.96 12.1431C11.96 12.3519 11.96 12.5606 11.96 12.7694C11.96 12.8042 11.9948 12.839 12.0992 12.839Z" fill="#4EA699"/>
<path d="M10.603 11.9692C10.4986 11.9692 10.3942 11.9692 10.2899 11.9692C10.2203 11.9692 10.1507 12.004 10.1507 12.0736C10.1507 12.2824 10.1507 12.4912 10.1507 12.6999C10.1507 12.7695 10.1855 12.8043 10.2551 12.8043C10.4638 12.8043 10.6726 12.8043 10.8814 12.8043C10.9509 12.8043 10.9857 12.7695 10.9857 12.6999C10.9857 12.5955 10.9857 12.4912 10.9857 12.3868C11.0205 11.9692 11.0205 11.9692 10.603 11.9692Z" fill="#4EA699"/>
<path d="M19.406 17.8847C19.3016 17.7803 19.1277 17.8847 19.0233 17.8499C18.8841 17.8499 18.7797 17.8499 18.6753 17.8499C18.6058 17.8499 18.571 17.8847 18.571 17.9543C18.571 18.1631 18.571 18.3718 18.571 18.6154C18.571 18.685 18.6058 18.7198 18.6753 18.7198C18.8841 18.7198 19.1277 18.7198 19.3364 18.7198C19.406 18.7198 19.4408 18.685 19.4408 18.6154C19.4408 18.511 19.4408 18.4066 19.4408 18.3023C19.4408 18.1283 19.5104 17.9543 19.406 17.8847Z" fill="#4EA699"/>
<path d="M18.6753 16.5969C18.8841 16.5969 19.1277 16.5969 19.3364 16.5969C19.4408 16.5969 19.4408 16.5621 19.4408 16.4925C19.4408 16.3881 19.4408 16.2838 19.4408 16.1794C19.4408 16.075 19.4408 15.9706 19.4408 15.8314C19.4408 15.7618 19.406 15.7271 19.3364 15.7271C19.1277 15.7271 18.8841 15.7271 18.6753 15.7271C18.6058 15.7271 18.571 15.7618 18.571 15.8314C18.571 16.0402 18.571 16.2838 18.571 16.4925C18.571 16.5621 18.6058 16.5969 18.6753 16.5969Z" fill="#4EA699"/>
<path d="M14.5 14.0918C14.2912 14.0918 14.0825 14.0918 13.9085 14.0918C13.8041 14.0918 13.7693 14.1266 13.7693 14.231C13.7693 14.4397 13.7693 14.6485 13.7693 14.8573C13.7693 14.9617 13.8041 14.9965 13.9085 14.9617C14.1173 14.9617 14.326 14.9617 14.5348 14.9617C14.6044 14.9617 14.6392 14.9269 14.6392 14.8573C14.6392 14.7529 14.6392 14.6485 14.6392 14.5441C14.6392 14.4397 14.6392 14.3354 14.6392 14.231C14.6392 14.1266 14.6044 14.0918 14.5 14.0918Z" fill="#4EA699"/>
<path d="M29 12.9358L25.6887 10.44L26.4904 6.36242L22.4123 5.69455L21.262 1.68727L17.3582 2.98788L14.5 0L11.6418 2.98788L7.70313 1.68727L6.55288 5.69455L2.47476 6.36242L3.27644 10.44L0 12.9358L2.61418 16.1697L0.836539 19.9309L4.63582 21.583L4.8101 25.7309L8.92308 25.4145L10.9796 29L14.4651 26.7855L17.9507 29L20.0072 25.4145L24.1202 25.7309L24.2945 21.583L28.0938 19.9309L26.3858 16.1697L29 12.9358ZM16.7656 14.7636C16.7656 16.6618 16.7656 18.5951 16.7656 20.4933C16.7656 20.88 16.5913 21.0558 16.2079 21.0558C15.476 21.0558 14.7788 21.0558 14.0469 21.0558C13.8726 21.0558 13.8377 21.0558 13.8377 20.8448C13.8377 19.7552 13.8377 18.6655 13.8377 17.5758C13.8377 17.3297 13.7332 17.1539 13.524 17.0133C13.4195 16.943 13.3149 16.943 13.2103 16.943C12.6526 16.943 12.095 16.943 11.5024 16.943C11.0841 16.943 10.8401 17.2242 10.8401 17.6109C10.8401 18.5248 10.8401 19.4036 10.8401 20.3176C10.8401 20.5285 10.8401 20.7394 10.8401 20.9503C10.8401 21.0206 10.8053 21.0558 10.7356 21.0558C10.1082 21.0558 9.51563 21.0909 8.88822 21.0206C8.33053 20.9503 7.94712 20.5285 7.94712 19.9309C7.94712 19.7552 7.94712 19.6145 7.94712 19.4388C7.94712 15.9939 7.94712 12.5491 7.94712 9.10424C7.94712 8.61212 8.15625 8.22545 8.57452 8.01455C8.71394 7.94424 8.88822 7.90909 9.0625 7.90909C11.2236 7.90909 13.4195 7.90909 15.5805 7.90909C16.2776 7.90909 16.6959 8.47151 16.6959 9.06909C16.7656 11.0024 16.7656 12.8655 16.7656 14.7636ZM20.9832 19.8958C20.9832 20.4582 20.6695 20.9152 20.1466 21.0206C20.0421 21.0558 19.9375 21.0558 19.8329 21.0558C19.0313 21.0558 18.2296 21.0558 17.4279 21.0558C17.2536 21.0558 17.2188 21.0558 17.2885 20.88C17.3233 20.7394 17.3233 20.6339 17.3233 20.4933C17.3233 17.6109 17.3233 14.7285 17.3233 11.8461C17.3233 11.6 17.3233 11.6 17.5673 11.6C18.2993 11.6 19.0661 11.6 19.7981 11.6C20.53 11.6 20.9832 12.057 20.9832 12.7952C20.9832 13.9552 20.9832 15.1503 20.9832 16.3103C20.9832 17.5055 20.9832 18.7006 20.9832 19.8958Z" fill="#4EA699"/>
<path d="M18.6753 14.5095C18.7797 14.5095 18.8841 14.5095 18.9885 14.5095C19.0929 14.5095 19.1973 14.5095 19.3016 14.5095C19.406 14.5095 19.4408 14.4747 19.4408 14.3703C19.4408 14.1616 19.4408 13.9528 19.4408 13.744C19.4408 13.6744 19.406 13.6396 19.3364 13.6396C19.1277 13.6396 18.9189 13.6396 18.6753 13.6396C18.571 13.6396 18.5362 13.6744 18.571 13.7788C18.571 13.9876 18.571 14.1964 18.571 14.4051C18.571 14.4747 18.6058 14.5095 18.6753 14.5095Z" fill="#4EA699"/>
</svg>
