<svg width="26" height="25" viewBox="0 0 26 25" fill="none" xmlns="http://www.w3.org/2000/svg">
<path d="M0.0267094 21.2739C0.160256 20.6462 0.320513 20.0319 0.641025 19.4576C1.16186 18.5228 1.89637 17.815 2.84455 17.3342C4.32692 16.5864 5.84936 15.972 7.45192 15.518C8.02617 15.3577 8.2532 15.4779 8.45352 16.0388C9.17468 18.042 9.88248 20.0452 10.6036 22.0351C10.617 22.0751 10.6303 22.1019 10.6704 22.2087C10.7505 21.808 10.8173 21.4742 10.8841 21.1403C11.031 20.4325 11.1645 19.7381 11.3114 19.0303C11.3515 18.8567 11.3248 18.7098 11.2714 18.5495C10.9509 17.628 10.6437 16.6932 10.3365 15.7717C10.2965 15.6382 10.2431 15.4913 10.2297 15.3444C10.2163 15.0239 10.4834 14.7434 10.844 14.7434C11.9658 14.7301 13.0742 14.7301 14.196 14.7434C14.6768 14.7434 14.9306 15.1307 14.7703 15.6115C14.4498 16.573 14.1293 17.5479 13.7954 18.5094C13.7286 18.6964 13.7153 18.8567 13.7553 19.057C13.9557 20.0586 14.156 21.0468 14.3563 22.0484C14.3563 22.0751 14.383 22.1019 14.4097 22.182C14.57 21.7413 14.7169 21.3273 14.8638 20.9133C15.4514 19.284 16.039 17.6414 16.6132 16.0121C16.8136 15.4512 17.0406 15.331 17.6282 15.5046C19.2975 15.972 20.9135 16.573 22.4225 17.4277C24.1052 18.3892 24.9866 19.8716 25.0534 21.8214C25.0668 22.1553 25.0668 22.4891 25.0534 22.823C25.0267 23.7712 24.3857 24.6259 23.4776 24.9063C23.3707 24.933 23.2772 24.9731 23.1704 24.9998C16.0657 24.9998 8.961 24.9998 1.8563 24.9998C1.66934 24.933 1.46902 24.8796 1.28205 24.7861C0.574252 24.4523 0.186966 23.878 0 23.1302C0.0267094 22.5426 0.0267094 21.9149 0.0267094 21.2739Z" fill="black"/>
<path d="M12.5267 0C16.3194 0 19.4044 3.07158 19.391 6.85096C19.3643 10.5903 16.4396 13.6886 12.5534 13.6886C8.70726 13.7019 5.70245 10.6303 5.6891 6.8376C5.67574 3.07158 8.76068 0 12.5267 0Z" fill="black"/>
</svg>
