<svg width="34" height="34" viewBox="0 0 34 34" fill="none" xmlns="http://www.w3.org/2000/svg">
<path d="M14.7 13.2C13.3 13.2 12.1 14.4 12.1 15.8C12.1 17.3 13.2 18.4 14.7 18.4C16.1 18.4 17.3 17.2 17.3 15.8C17.3 14.4 16.1 13.2 14.7 13.2Z" fill="#4EA699"/>
<path d="M17 0C7.6 0 0 7.6 0 17C0 26.4 7.6 34 17 34C26.4 34 34 26.4 34 17C34 7.6 26.4 0 17 0ZM7 19.3V12.3C7 11.3 7.8 10.5 8.7 10.5H20.6C21.5 10.5 22.3 11.3 22.3 12.3V19.3C22.3 20.3 21.5 21.1 20.6 21.1H8.7C7.8 21.1 7 20.3 7 19.3ZM25.8 22.9C25.8 23.9 25 24.7 24.1 24.7H9.6V22.9H24.1V13.2H25.8V22.9Z" fill="#4EA699"/>
</svg>
