<svg width="51" height="46" viewBox="0 0 51 46" fill="none" xmlns="http://www.w3.org/2000/svg">
<path d="M25.5002 33.1501C29.7251 33.1501 33.1502 29.7251 33.1502 25.5001C33.1502 21.2751 29.7251 17.8501 25.5002 17.8501C21.2752 17.8501 17.8502 21.2751 17.8502 25.5001C17.8502 29.7251 21.2752 33.1501 25.5002 33.1501Z" fill="black"/>
<path d="M45.9 5.1H37.8165L34.6545 1.6575C33.711 0.612 32.334 0 30.906 0H20.094C18.666 0 17.289 0.612 16.32 1.6575L13.1835 5.1H5.1C2.295 5.1 0 7.395 0 10.2V40.8C0 43.605 2.295 45.9 5.1 45.9H45.9C48.705 45.9 51 43.605 51 40.8V10.2C51 7.395 48.705 5.1 45.9 5.1ZM25.5 38.25C18.462 38.25 12.75 32.538 12.75 25.5C12.75 18.462 18.462 12.75 25.5 12.75C32.538 12.75 38.25 18.462 38.25 25.5C38.25 32.538 32.538 38.25 25.5 38.25Z" fill="black"/>
</svg>
