<svg width="21" height="21" viewBox="0 0 21 21" fill="none" xmlns="http://www.w3.org/2000/svg">
<path d="M10.4999 0C8.42325 0 6.39319 0.61581 4.66649 1.76956C2.93978 2.92331 1.59398 4.56317 0.799265 6.48178C0.00454938 8.4004 -0.203384 10.5116 0.201758 12.5484C0.6069 14.5852 1.60692 16.4561 3.07536 17.9245C4.54381 19.393 6.41472 20.393 8.4515 20.7981C10.4883 21.2033 12.5995 20.9953 14.5181 20.2006C16.4367 19.4059 18.0766 18.0601 19.2303 16.3334C20.3841 14.6067 20.9999 12.5766 20.9999 10.4999C20.9999 7.71518 19.8936 5.04448 17.9245 3.07536C15.9554 1.10624 13.2847 0 10.4999 0ZM15.7499 14.503C15.924 14.6771 16.0217 14.9131 16.0217 15.1593C16.0217 15.4054 15.924 15.6415 15.7499 15.8155C15.5759 15.9896 15.3398 16.0874 15.0937 16.0874C14.8475 16.0874 14.6115 15.9896 14.4374 15.8155L10.4999 11.8781L6.56246 15.8287C6.47629 15.9148 6.37398 15.9832 6.26138 16.0298C6.14878 16.0765 6.02809 16.1005 5.90622 16.1005C5.78434 16.1005 5.66366 16.0765 5.55106 16.0298C5.43846 15.9832 5.33615 15.9148 5.24997 15.8287C5.16379 15.7425 5.09543 15.6402 5.04879 15.5276C5.00215 15.415 4.97815 15.2943 4.97815 15.1724C4.97815 15.0505 5.00215 14.9298 5.04879 14.8172C5.09543 14.7046 5.16379 14.6023 5.24997 14.5162L9.18745 10.5524L5.13841 6.47058C5.05223 6.38441 4.98387 6.2821 4.93723 6.1695C4.89059 6.0569 4.86659 5.93622 4.86659 5.81434C4.86659 5.69246 4.89059 5.57178 4.93723 5.45918C4.98387 5.34658 5.05223 5.24427 5.13841 5.15809C5.22459 5.07191 5.3269 5.00355 5.4395 4.95691C5.5521 4.91027 5.67278 4.88627 5.79466 4.88627C5.91653 4.88627 6.03722 4.91027 6.14981 4.95691C6.26241 5.00355 6.36472 5.07191 6.4509 5.15809L10.4999 9.25307L14.549 5.20403C14.6352 5.11785 14.7375 5.04949 14.8501 5.00285C14.9627 4.95621 15.0833 4.9322 15.2052 4.9322C15.3271 4.9322 15.4478 4.95621 15.5604 5.00285C15.673 5.04949 15.7753 5.11785 15.8615 5.20403C15.9477 5.29021 16.016 5.39252 16.0627 5.50512C16.1093 5.61772 16.1333 5.7384 16.1333 5.86028C16.1333 5.98215 16.1093 6.10284 16.0627 6.21543C16.016 6.32803 15.9477 6.43034 15.8615 6.51652L11.8124 10.5524L15.7499 14.503Z" fill="#E30000"/>
</svg>
