<svg width="34" height="34" viewBox="0 0 34 34" fill="none" xmlns="http://www.w3.org/2000/svg">
<path d="M21.7108 8.7439L19.5663 10.8884L23.8553 15.1774L25.9999 13.0329L21.7108 8.7439ZM17.4218 13.0329L8.84375 21.611V25.9H13.1328L21.7108 17.322L17.4218 13.0329Z" fill="black"/>
<circle r="17" transform="matrix(1 0 0 -1 17 17)" fill="#D9D9D9"/>
<circle r="17" transform="matrix(1 0 0 -1 17 17)" stroke="white"/>
<path d="M17 20.6001C18.4912 20.6001 19.7 19.3912 19.7 17.9001C19.7 16.4089 18.4912 15.2001 17 15.2001C15.5089 15.2001 14.3 16.4089 14.3 17.9001C14.3 19.3912 15.5089 20.6001 17 20.6001Z" fill="black"/>
<path d="M24.2 10.7H21.347L20.231 9.48502C19.898 9.11602 19.412 8.90002 18.908 8.90002H15.092C14.588 8.90002 14.102 9.11602 13.76 9.48502L12.653 10.7H9.8C8.81 10.7 8 11.51 8 12.5V23.3C8 24.29 8.81 25.1 9.8 25.1H24.2C25.19 25.1 26 24.29 26 23.3V12.5C26 11.51 25.19 10.7 24.2 10.7ZM17 22.4C14.516 22.4 12.5 20.384 12.5 17.9C12.5 15.416 14.516 13.4 17 13.4C19.484 13.4 21.5 15.416 21.5 17.9C21.5 20.384 19.484 22.4 17 22.4Z" fill="black"/>
</svg>
