<svg width="19" height="25" viewBox="0 0 19 25" fill="none" xmlns="http://www.w3.org/2000/svg">
<path d="M0 12.5C0 12.8315 0.125111 13.1495 0.347811 13.3839C0.57051 13.6183 0.872555 13.75 1.1875 13.75H10.2006L7.46938 16.6125C7.35807 16.7287 7.26973 16.867 7.20944 17.0193C7.14915 17.1716 7.11811 17.335 7.11811 17.5C7.11811 17.665 7.14915 17.8284 7.20944 17.9807C7.26973 18.133 7.35807 18.2713 7.46938 18.3875C7.57977 18.5047 7.71111 18.5977 7.85581 18.6611C8.00052 18.7246 8.15574 18.7572 8.3125 18.7572C8.46926 18.7572 8.62448 18.7246 8.76919 18.6611C8.91389 18.5977 9.04523 18.5047 9.15563 18.3875L13.9056 13.3875C14.0137 13.2686 14.0985 13.1284 14.155 12.975C14.2738 12.6707 14.2738 12.3293 14.155 12.025C14.0985 11.8716 14.0137 11.7314 13.9056 11.6125L9.15563 6.6125C9.0449 6.49595 8.91346 6.4035 8.7688 6.34043C8.62413 6.27735 8.46908 6.24489 8.3125 6.24489C8.15592 6.24489 8.00087 6.27735 7.8562 6.34043C7.71154 6.4035 7.5801 6.49595 7.46938 6.6125C7.35865 6.72905 7.27083 6.86741 7.2109 7.01969C7.15098 7.17197 7.12014 7.33518 7.12014 7.5C7.12014 7.66482 7.15098 7.82803 7.2109 7.98031C7.27083 8.13259 7.35865 8.27095 7.46938 8.3875L10.2006 11.25H1.1875C0.872555 11.25 0.57051 11.3817 0.347811 11.6161C0.125111 11.8505 0 12.1685 0 12.5ZM15.4375 0H3.5625C2.61767 0 1.71153 0.395088 1.04343 1.09835C0.375334 1.80161 0 2.75544 0 3.75V7.5C0 7.83152 0.125111 8.14946 0.347811 8.38388C0.57051 8.6183 0.872555 8.75 1.1875 8.75C1.50244 8.75 1.80449 8.6183 2.02719 8.38388C2.24989 8.14946 2.375 7.83152 2.375 7.5V3.75C2.375 3.41848 2.50011 3.10054 2.72281 2.86612C2.94551 2.6317 3.24756 2.5 3.5625 2.5H15.4375C15.7524 2.5 16.0545 2.6317 16.2772 2.86612C16.4999 3.10054 16.625 3.41848 16.625 3.75V21.25C16.625 21.5815 16.4999 21.8995 16.2772 22.1339C16.0545 22.3683 15.7524 22.5 15.4375 22.5H3.5625C3.24756 22.5 2.94551 22.3683 2.72281 22.1339C2.50011 21.8995 2.375 21.5815 2.375 21.25V17.5C2.375 17.1685 2.24989 16.8505 2.02719 16.6161C1.80449 16.3817 1.50244 16.25 1.1875 16.25C0.872555 16.25 0.57051 16.3817 0.347811 16.6161C0.125111 16.8505 0 17.1685 0 17.5V21.25C0 22.2446 0.375334 23.1984 1.04343 23.9017C1.71153 24.6049 2.61767 25 3.5625 25H15.4375C16.3823 25 17.2885 24.6049 17.9566 23.9017C18.6247 23.1984 19 22.2446 19 21.25V3.75C19 2.75544 18.6247 1.80161 17.9566 1.09835C17.2885 0.395088 16.3823 0 15.4375 0Z" fill="#A7A7A7"/>
</svg>
