<svg width="20" height="15" viewBox="0 0 20 15" fill="none" xmlns="http://www.w3.org/2000/svg">
<path fill-rule="evenodd" clip-rule="evenodd" d="M0.5 1.8421V8.91657C0.5 9.9272 1.30851 10.7357 2.21809 10.7357H14.2447C15.1543 10.7357 15.9628 9.9272 15.9628 8.91657V1.8421C15.9628 0.83146 15.1543 0.0229492 14.2447 0.0229492H2.21809C1.30851 0.0229492 0.5 0.83146 0.5 1.8421ZM17.7819 14.374C18.6915 14.374 19.5 13.5655 19.5 12.5549V2.75167H17.7819V12.5549H3.12766V14.374H17.7819ZM5.65436 5.37912C5.65436 3.96423 6.86712 2.75146 8.28202 2.75146C9.69691 2.75146 10.9097 3.96423 10.9097 5.37912C10.9097 6.79402 9.69691 8.00678 8.28202 8.00678C6.76606 8.00678 5.65436 6.89508 5.65436 5.37912Z" fill="black"/>
</svg>
