<svg width="54" height="54" viewBox="0 0 54 54" fill="none" xmlns="http://www.w3.org/2000/svg">
<path d="M27 0C21.6599 0 16.4397 1.58352 11.9996 4.55032C7.55949 7.51712 4.09883 11.7339 2.05526 16.6675C0.0116985 21.6011 -0.522991 27.0299 0.518809 32.2674C1.56061 37.5049 4.13211 42.3159 7.90813 46.0919C11.6841 49.8679 16.4951 52.4394 21.7326 53.4812C26.9701 54.523 32.3989 53.9883 37.3325 51.9447C42.2661 49.9012 46.4829 46.4405 49.4497 42.0004C52.4165 37.5603 54 32.3401 54 27C54 19.8391 51.1554 12.9716 46.0919 7.90812C41.0284 2.84463 34.1608 0 27 0ZM40.5 37.2937C40.9476 37.7413 41.199 38.3483 41.199 38.9812C41.199 39.6142 40.9476 40.2212 40.5 40.6687C40.0524 41.1163 39.4454 41.3677 38.8125 41.3677C38.1796 41.3677 37.5726 41.1163 37.125 40.6687L27 30.5437L16.875 40.7025C16.6534 40.9241 16.3903 41.0999 16.1008 41.2198C15.8112 41.3397 15.5009 41.4015 15.1875 41.4015C14.8741 41.4015 14.5638 41.3397 14.2742 41.2198C13.9847 41.0999 13.7216 40.9241 13.5 40.7025C13.2784 40.4809 13.1026 40.2178 12.9827 39.9283C12.8628 39.6387 12.801 39.3284 12.801 39.015C12.801 38.7016 12.8628 38.3913 12.9827 38.1017C13.1026 37.8122 13.2784 37.5491 13.5 37.3275L23.625 27.135L13.2131 16.6387C12.9915 16.4171 12.8157 16.1541 12.6958 15.8645C12.5759 15.575 12.5141 15.2646 12.5141 14.9512C12.5141 14.6378 12.5759 14.3275 12.6958 14.038C12.8157 13.7484 12.9915 13.4854 13.2131 13.2637C13.4347 13.0421 13.6978 12.8664 13.9874 12.7464C14.2769 12.6265 14.5872 12.5648 14.9006 12.5648C15.214 12.5648 15.5244 12.6265 15.8139 12.7464C16.1034 12.8664 16.3665 13.0421 16.5881 13.2637L27 23.7937L37.4119 13.3819C37.6335 13.1603 37.8966 12.9845 38.1861 12.8645C38.4756 12.7446 38.786 12.6829 39.0994 12.6829C39.4128 12.6829 39.7231 12.7446 40.0126 12.8645C40.3022 12.9845 40.5653 13.1603 40.7869 13.3819C41.0085 13.6035 41.1843 13.8666 41.3042 14.1561C41.4241 14.4456 41.4859 14.756 41.4859 15.0694C41.4859 15.3828 41.4241 15.6931 41.3042 15.9826C41.1843 16.2722 41.0085 16.5353 40.7869 16.7569L30.375 27.135L40.5 37.2937Z" fill="#A7A7A7"/>
</svg>
