<?xml version="1.0" encoding="utf-8"?>
<!-- Generator: Adobe Illustrator 25.3.1, SVG Export Plug-In . SVG Version: 6.00 Build 0)  -->
<svg version="1.1" id="Livello_1" xmlns="http://www.w3.org/2000/svg" xmlns:xlink="http://www.w3.org/1999/xlink" x="0px" y="0px"
	 viewBox="0 0 128 128" style="enable-background:new 0 0 128 128;" xml:space="preserve">
<g>
	<path d="M105.57,62.56C98.09,49.64,80.86,40.67,64,41.03c-16.86-0.37-34.09,8.61-41.57,21.52c-0.59,0.99-0.63,1.92,0,2.92
		C30.5,78.87,46.09,86.75,64,86.98c17.91-0.23,33.5-8.1,41.57-21.51C106.19,64.47,106.16,63.55,105.57,62.56z M64,80.54
		c-21.61-0.09-21.63-32.97,0-33.06C85.63,47.57,85.61,80.46,64,80.54z"/>
	<path d="M64,53.39c-6.25,0.03-10.7,4.93-10.62,10.71c0.08,6.18,4.89,10.43,10.62,10.56c5.73-0.13,10.53-4.37,10.62-10.56
		C74.7,58.32,70.25,53.42,64,53.39z"/>
</g>
</svg>
