<?xml version="1.0" encoding="utf-8"?>
<!-- Generator: Adobe Illustrator 25.3.1, SVG Export Plug-In . SVG Version: 6.00 Build 0)  -->
<svg version="1.1" id="Livello_1" xmlns="http://www.w3.org/2000/svg" xmlns:xlink="http://www.w3.org/1999/xlink" x="0px" y="0px"
	 viewBox="0 0 128 128" style="enable-background:new 0 0 128 128;" xml:space="preserve">
<path style="fill:#D8D8D8;" d="M105.57,65.47c-3.97,6.58-9.75,11.83-16.73,15.49l-9.98-9.98c4.03-9.74-0.91-23.44-14.86-23.5
	c-2.73,0.01-5.12,0.54-7.16,1.48l-6.31-6.31c4.38-1.14,8.94-1.72,13.47-1.62c16.86-0.36,34.09,8.61,41.57,21.53
	C106.16,63.55,106.2,64.47,105.57,65.47z M83.99,83.18l5.46,5.46l-3.54,3.53l-7.22-7.22c-4.62,1.27-9.56,1.96-14.69,2.03
	c-17.91-0.23-33.5-8.11-41.57-21.51c-0.62-1-0.59-1.92,0-2.91c3.83-6.63,10.24-12.21,17.84-16.03l-5.25-5.25l3.54-3.53l6.62,6.62
	l7.46,7.46l4.23,4.23l15.06,15.06l4.23,4.23L83.99,83.18z M72.25,78.51l-4.54-4.54c-1.16,0.42-2.41,0.66-3.71,0.69
	c-5.73-0.13-10.53-4.38-10.62-10.56c-0.02-1.34,0.21-2.63,0.64-3.82l-4.36-4.36C44.73,65.7,49.52,80.49,64,80.54
	C67.24,80.53,69.99,79.78,72.25,78.51z"/>
</svg>
