<svg xmlns="http://www.w3.org/2000/svg" viewBox="0 0 477.64 512"><defs><style>.cls-1{fill:#fff;}</style></defs><g id="Livello_2" data-name="Livello 2"><g id="Livello_1-2" data-name="Livello 1"><path class="cls-1" d="M327,512c56.64.55,111.6-26.65,141.79-66.62,14.13-18.69,10.42-37-4.42-51.55-20.91-20.46-43-40.26-67-56.93-24.54-17.07-48-13.16-71.27,6.69a286.07,286.07,0,0,0-22.78,21.24c-14.69,15.6-33,17.86-49.79,8.14-57.14-33-98.78-80.8-124.46-141.57-8.52-20.16-2.64-38.1,15.53-52.83,56-45.43,58.22-61.72,19.55-123.86C160.52,48.83,157,42.86,153,37.2,120.72-8.91,104.07-11.16,62.14,24.94a235,235,0,0,0-19,17.64c-49,52.72-56.89,130.86-20.38,208.89,35.1,75,87.24,137,149.74,190.41C218.82,481.46,270.41,510.17,327,512Z"/><path d="M327,512c-56.57-1.82-108.16-30.53-154.48-70.11C110,388.48,57.86,326.5,22.76,251.47-13.75,173.44-5.89,95.3,43.14,42.58a235,235,0,0,1,19-17.64C104.07-11.16,120.72-8.91,153,37.2c4,5.66,7.51,11.63,11.17,17.5,38.67,62.14,36.49,78.43-19.55,123.86-18.17,14.73-24,32.67-15.53,52.83C154.78,292.16,196.42,340,253.56,373c16.83,9.72,35.1,7.46,49.79-8.14a286.07,286.07,0,0,1,22.78-21.24c23.26-19.85,46.73-23.76,71.27-6.69,24,16.67,46,36.47,67,56.93,14.84,14.51,18.55,32.86,4.42,51.55C438.58,485.34,383.62,512.54,327,512Z"/></g></g></svg>