<svg width="70" height="76" viewBox="0 0 70 76" fill="none" xmlns="http://www.w3.org/2000/svg">
<path d="M66.0101 6.29617C56.2367 2.42899 45.1642 0.297852 34.8282 0.297852C24.1876 0.297852 13.0983 2.39551 3.5961 6.20075C0.197662 7.57854 -0.386601 10.0077 0.199336 11.819L0.880697 13.5233C1.01437 13.857 1.21387 14.1605 1.4673 14.4155C1.72072 14.6705 2.02289 14.8719 2.35579 15.0076C2.6887 15.1434 3.04552 15.2107 3.40501 15.2056C3.76449 15.2006 4.11928 15.1232 4.44822 14.9781C6.25625 14.1812 8.45435 13.2136 8.9683 13.006C16.336 9.9474 25.3109 8.33356 34.9019 8.33356C44.523 8.33356 52.9973 9.88043 60.8104 13.0629C61.5503 13.3642 63.3014 14.1377 65.1915 14.9814C65.5197 15.1281 65.8742 15.2071 66.2336 15.2138C66.593 15.2206 66.9502 15.1549 67.2837 15.0207C67.6172 14.8865 67.9203 14.6866 68.1749 14.4328C68.4296 14.1789 68.6305 13.8765 68.7657 13.5434L69.3885 12.0166L69.4454 11.8659C70.023 10.1567 69.4688 7.67229 66.0101 6.29617Z" fill="black"/>
<path d="M60.5459 18.5221C52.927 15.4535 43.5537 13.6907 34.8283 13.6907C26.0237 13.6965 17.2967 15.3364 9.09058 18.5272C9.00185 18.5623 8.74571 18.6745 8.37239 18.8419C8.04962 18.9866 7.7587 19.1937 7.51642 19.4514C7.27414 19.7091 7.08529 20.0122 6.96078 20.3432C6.83626 20.6743 6.77854 21.0267 6.79096 21.3802C6.80337 21.7337 6.88567 22.0812 7.0331 22.4027C7.70274 23.8609 8.61011 25.848 9.62797 28.0763C15.1375 40.1416 25.3947 62.5746 30.0906 72.2844C30.5256 73.1902 31.2085 73.9541 32.0601 74.4875C32.9117 75.0209 33.8971 75.3018 34.9019 75.2978V75.2978C35.9085 75.3018 36.8954 75.0197 37.7478 74.4844C38.6003 73.9491 39.283 73.1827 39.7167 72.2743L39.7267 72.2526L62.7122 22.4362C62.8643 22.1102 62.9488 21.7568 62.9609 21.3973C62.9729 21.0378 62.9121 20.6796 62.7821 20.3441C62.6522 20.0087 62.4558 19.703 62.2047 19.4455C61.9536 19.1879 61.653 18.9837 61.321 18.8452C60.9427 18.6862 60.6765 18.5757 60.5677 18.5322L60.5459 18.5221ZM24.5359 32.4289C23.4489 32.4998 22.3662 32.2377 21.432 31.6774C20.4979 31.1172 19.7567 30.2855 19.3073 29.2933C18.8579 28.301 18.7217 27.1954 18.9168 26.1237C19.1119 25.052 19.629 24.0653 20.3992 23.2951C21.1695 22.5249 22.1562 22.0077 23.2278 21.8126C24.2995 21.6176 25.4052 21.7538 26.3974 22.2032C27.3897 22.6525 28.2214 23.3937 28.7816 24.3279C29.3418 25.262 29.604 26.3448 29.5331 27.4317C29.4485 28.7293 28.8948 29.9518 27.9754 30.8712C27.0559 31.7907 25.8334 32.3443 24.5359 32.4289ZM35.2502 53.8575C34.1632 53.9284 33.0805 53.6662 32.1463 53.106C31.2122 52.5458 30.471 51.7141 30.0216 50.7218C29.5722 49.7296 29.436 48.6239 29.6311 47.5523C29.8262 46.4806 30.3433 45.4939 31.1135 44.7236C31.8837 43.9534 32.8705 43.4363 33.9421 43.2412C35.0138 43.0461 36.1194 43.1823 37.1117 43.6317C38.1039 44.0811 38.9356 44.8223 39.4959 45.7564C40.0561 46.6906 40.3182 47.7733 40.2474 48.8603C40.1628 50.1578 39.6091 51.3803 38.6897 52.2998C37.7702 53.2192 36.5477 53.7729 35.2502 53.8575V53.8575ZM45.9644 35.1075C44.8775 35.1784 43.7947 34.9162 42.8606 34.356C41.9264 33.7958 41.1853 32.9641 40.7359 31.9718C40.2865 30.9796 40.1503 29.8739 40.3453 28.8023C40.5404 27.7306 41.0576 26.7439 41.8278 25.9737C42.598 25.2034 43.5847 24.6863 44.6564 24.4912C45.7281 24.2961 46.8337 24.4324 47.826 24.8817C48.8182 25.3311 49.6499 26.0723 50.2101 27.0065C50.7704 27.9406 51.0325 29.0233 50.9616 30.1103C50.877 31.4079 50.3234 32.6303 49.4039 33.5498C48.4845 34.4693 47.262 35.0229 45.9644 35.1075V35.1075Z" fill="black"/>
</svg>
