<svg width="20" height="27" viewBox="0 0 20 27" fill="none" xmlns="http://www.w3.org/2000/svg">
<path d="M9.65402 0.326416C4.34434 0.326416 0.0361328 4.16161 0.0361328 8.88739C0.0361328 16.4971 9.65402 26.9606 9.65402 26.9606C9.65402 26.9606 19.2719 16.4971 19.2719 8.88739C19.2719 4.16161 14.9637 0.326416 9.65402 0.326416ZM9.65402 13.6435C8.89312 13.6435 8.14932 13.4203 7.51665 13.0023C6.88399 12.5842 6.39089 11.9899 6.09971 11.2947C5.80853 10.5994 5.73234 9.83439 5.88079 9.09632C6.02923 8.35824 6.39564 7.68028 6.93367 7.14816C7.4717 6.61603 8.1572 6.25365 8.90348 6.10684C9.64975 5.96003 10.4233 6.03538 11.1263 6.32336C11.8292 6.61134 12.4301 7.09903 12.8528 7.72473C13.2755 8.35044 13.5012 9.08608 13.5012 9.83861C13.5001 10.8474 13.0944 11.8145 12.3731 12.5279C11.6519 13.2412 10.674 13.6424 9.65402 13.6435Z" fill="black"/>
</svg>
