<svg width="19" height="23" viewBox="0 0 19 23" fill="none" xmlns="http://www.w3.org/2000/svg">
<path d="M3.5625 0H15.4375C16.3823 0 17.2885 0.363481 17.9566 1.01048C18.6247 1.65748 19 2.535 19 3.45V19.55C19 20.465 18.6247 21.3425 17.9566 21.9895C17.2885 22.6365 16.3823 23 15.4375 23H3.5625C2.61767 23 1.71153 22.6365 1.04343 21.9895C0.375334 21.3425 0 20.465 0 19.55L0 3.45C0 2.535 0.375334 1.65748 1.04343 1.01048C1.71153 0.363481 2.61767 0 3.5625 0V0ZM4.75 8.05C4.43506 8.05 4.13301 8.17116 3.91031 8.38683C3.68761 8.60249 3.5625 8.895 3.5625 9.2C3.5625 9.505 3.68761 9.79751 3.91031 10.0132C4.13301 10.2288 4.43506 10.35 4.75 10.35H14.25C14.5649 10.35 14.867 10.2288 15.0897 10.0132C15.3124 9.79751 15.4375 9.505 15.4375 9.2C15.4375 8.895 15.3124 8.60249 15.0897 8.38683C14.867 8.17116 14.5649 8.05 14.25 8.05H4.75ZM4.75 17.25C4.43506 17.25 4.13301 17.3712 3.91031 17.5868C3.68761 17.8025 3.5625 18.095 3.5625 18.4C3.5625 18.705 3.68761 18.9975 3.91031 19.2132C4.13301 19.4288 4.43506 19.55 4.75 19.55H10.6875C11.0024 19.55 11.3045 19.4288 11.5272 19.2132C11.7499 18.9975 11.875 18.705 11.875 18.4C11.875 18.095 11.7499 17.8025 11.5272 17.5868C11.3045 17.3712 11.0024 17.25 10.6875 17.25H4.75ZM4.75 3.45C4.43506 3.45 4.13301 3.57116 3.91031 3.78683C3.68761 4.00249 3.5625 4.295 3.5625 4.6C3.5625 4.905 3.68761 5.19751 3.91031 5.41317C4.13301 5.62884 4.43506 5.75 4.75 5.75H14.25C14.5649 5.75 14.867 5.62884 15.0897 5.41317C15.3124 5.19751 15.4375 4.905 15.4375 4.6C15.4375 4.295 15.3124 4.00249 15.0897 3.78683C14.867 3.57116 14.5649 3.45 14.25 3.45H4.75ZM4.75 12.65C4.43506 12.65 4.13301 12.7712 3.91031 12.9868C3.68761 13.2025 3.5625 13.495 3.5625 13.8C3.5625 14.105 3.68761 14.3975 3.91031 14.6132C4.13301 14.8288 4.43506 14.95 4.75 14.95H14.25C14.5649 14.95 14.867 14.8288 15.0897 14.6132C15.3124 14.3975 15.4375 14.105 15.4375 13.8C15.4375 13.495 15.3124 13.2025 15.0897 12.9868C14.867 12.7712 14.5649 12.65 14.25 12.65H4.75Z" fill="#A7A7A7"/>
</svg>
