<svg width="28" height="26" viewBox="0 0 28 26" fill="none" xmlns="http://www.w3.org/2000/svg">
<path d="M8.07813 20.0008C6.31371 20.0008 4.54882 20.006 2.78393 20.0008C1.47139 19.9951 0.446846 19.2306 0.123804 18.0454C-0.00361306 17.5794 0.0375958 17.1213 0.138961 16.6581C0.82136 13.542 2.52657 11.1602 5.25459 9.51277C5.47911 9.37635 5.60747 9.41425 5.77799 9.59803C7.11706 11.0399 8.791 11.7769 10.7449 11.7769C12.6869 11.7769 14.3552 11.0484 15.6914 9.62219C15.896 9.40382 16.0405 9.37967 16.2934 9.53503C17.3743 10.1947 18.3388 11.0282 19.1483 12.0019C19.3226 12.2122 19.3429 12.3145 19.0497 12.4382C16.1428 13.6612 14.4428 15.8419 13.9298 18.9502C13.8981 19.1429 13.9043 19.3414 13.8825 19.5361C13.8308 19.9965 13.8285 19.997 13.3742 19.9984C13.0692 19.9984 12.7641 19.9984 12.4596 19.9984L8.07813 20.0008Z" fill="#A7A7A7"/>
<path d="M21.7805 25.9698C18.7618 25.8751 15.9965 23.3173 16.1211 19.8562C16.2424 16.4742 19.1052 13.8842 22.3916 14.1063C25.7286 14.3318 28.1182 17.0601 27.9955 20.2228C27.8624 23.6361 25.0654 26.1607 21.7805 25.9698ZM19.1962 21.7982C19.1701 22.2766 19.3771 22.6181 19.7854 22.8161C20.2117 23.0212 20.6219 22.9488 20.9696 22.6399C21.2709 22.3728 21.5546 22.0848 21.8298 21.7906C21.9927 21.6173 22.114 21.6012 22.2817 21.784C22.5474 22.0725 22.8259 22.3496 23.1139 22.6158C23.5734 23.0421 24.2199 23.025 24.6405 22.594C25.0379 22.1871 25.0289 21.5297 24.6116 21.091C24.3563 20.8225 24.1015 20.552 23.8244 20.3071C23.6018 20.1105 23.624 19.9713 23.8344 19.7861C24.1029 19.5492 24.3521 19.2868 24.5984 19.0254C25.0474 18.5517 25.0474 17.8985 24.6079 17.4746C24.1815 17.0629 23.5369 17.0772 23.0812 17.5158C22.797 17.7881 22.5209 18.0652 22.2499 18.348C22.1145 18.4901 22.0069 18.493 21.871 18.348C21.6076 18.0723 21.3357 17.8052 21.0629 17.5385C20.5959 17.0828 19.9394 17.0544 19.5107 17.4665C19.0711 17.8895 19.0806 18.5673 19.5386 19.0429C19.8034 19.3176 20.0706 19.59 20.3486 19.8505C20.5068 19.9992 20.4945 20.1115 20.3444 20.2545C20.0602 20.525 19.7883 20.8073 19.5112 21.0849C19.3113 21.2852 19.1862 21.5192 19.1962 21.7982Z" fill="#A7A7A7"/>
<path d="M15.7397 5.03323C15.734 7.77341 13.4765 10.0124 10.7274 10.0068C7.96918 9.99776 5.75714 7.74736 5.76283 4.9565C5.76946 2.23148 8.0246 -0.00803073 10.7544 2.16472e-05C13.5173 0.00807402 15.7454 2.25753 15.7397 5.03323Z" fill="#A7A7A7"/>
</svg>
